<?xml version="1.0" encoding="utf-8"?>
<!-- Generator: Adobe Illustrator 27.3.1, SVG Export Plug-In . SVG Version: 6.00 Build 0)  -->
<svg version="1.1" id="Layer_1" xmlns="http://www.w3.org/2000/svg" xmlns:xlink="http://www.w3.org/1999/xlink" x="0px" y="0px"
	 viewBox="0 0 612 792" style="enable-background:new 0 0 612 792;" xml:space="preserve">
<style type="text/css">
	.st0{fill:#FFFFFF;}
	.st1{font-family:'MyriadPro-Regular';}
	.st2{font-size:94.4966px;}
</style>
<g>
	<rect y="-1" width="612" height="792"/>
	<g>
		<path class="st0" d="M313.27,285c0,64.92,0.01,129.84-0.01,194.76c0,8.21-4.33,12.69-11.6,12.14c-6.26-0.47-9.91-4.45-9.92-11.23
			c-0.04-22.63,0.01-45.27,0.03-67.9c0.1-107.73,0.19-215.47,0.3-323.2c0.01-8.36,3.5-12.35,10.75-12.34
			c5.42,0.01,9.66,3.93,10.05,9.32c0.09,1.22,0.04,2.46,0.04,3.68c0,64.92,0,129.84,0,194.76C313.03,285,313.15,285,313.27,285z"/>
		<path class="st0" d="M367.08,285c0,55.62,0.03,111.24-0.06,166.86c-0.01,3.77,0.9,7.72-3.52,10.69
			c-4.78,3.21-9.18,3.06-13.78,0.81c-4.19-2.05-4.79-6.3-4.81-10.38c-0.09-19.65-0.02-39.3,0-58.95
			c0.08-90.71,0.16-181.42,0.25-272.13c0-2.28-0.08-4.57,0.07-6.84c0.53-8.05,3.92-11.2,11.6-10.91c6.53,0.25,9.99,3.99,9.99,11.36
			c0.04,56.5,0.02,112.99,0.02,169.49C366.91,285,366.99,285,367.08,285z"/>
		<path class="st0" d="M241.17,293c0-55.41,0-110.82,0-166.23c0-1.75-0.04-3.51,0.08-5.26c0.41-6.04,2.7-8.57,8.12-9.1
			c6.87-0.67,10.06,1.14,11.57,6.95c0.61,2.34,0.85,4.83,0.85,7.25c0.14,110.47,0.24,220.94,0.29,331.41c0,2.76-0.36,5.61-1.06,8.28
			c-1.18,4.49-6.33,7.76-10.83,7.27c-5.56-0.6-9.03-3.95-9.08-9.6c-0.18-21.22-0.19-42.43-0.21-63.65
			c-0.03-35.77-0.01-71.54-0.01-107.31C240.98,293,241.08,293,241.17,293z"/>
		<path class="st0" d="M394.32,307c0-28.76-0.04-57.52,0.03-86.29c0.02-8.16,4.36-12.27,11.91-11.66c5.68,0.46,9.08,3.81,9.73,9.79
			c0.23,2.08,0.13,4.2,0.13,6.31c0.05,55.59,0.1,111.19,0.11,166.78c0,4.4,0.22,9.48-4.45,11.48c-3.4,1.45-7.89,2.04-11.4,1.13
			c-4.81-1.24-6.38-5.59-6.36-10.73c0.15-28.94,0.07-57.87,0.07-86.81C394.17,307,394.24,307,394.32,307z"/>
		<path class="st0" d="M212.9,307c0,27.7,0,55.39-0.01,83.09c0,2.1,0,4.21-0.18,6.3c-0.46,5.33-3.2,8.44-7.8,9
			c-6.79,0.83-10.61-1.25-12.29-6.96c-0.58-1.98-0.81-4.13-0.81-6.2c0.01-56.62,0.05-113.24,0.18-169.86
			c0.01-2.73,0.48-5.62,1.45-8.17c1.65-4.32,6.39-6.27,11.94-5.15c4.25,0.86,6.77,3.7,7.01,8.03c0.28,5.07,0.24,10.16,0.25,15.24
			c0.02,24.89,0.01,49.78,0.01,74.67C212.75,307,212.82,307,212.9,307z"/>
		<path class="st0" d="M165.02,314c0,17.7-0.21,35.4,0.09,53.1c0.15,8.61-5.43,11.17-11.22,11.64c-5.73,0.47-11.16-5.63-11.16-11.89
			c0.01-35.75,0.04-71.5,0.11-107.25c0.01-6.24,5.09-11.49,10.94-11.51c6.56-0.02,11.08,4.39,11.11,11.23
			c0.08,18.23,0.03,36.45,0.03,54.68C164.95,314,164.98,314,165.02,314z"/>
		<path class="st0" d="M464.25,307c0,17.87,0.03,35.73-0.01,53.6c-0.02,7.66-4.02,11.78-11.08,11.62
			c-5.99-0.13-10.12-4.73-10.12-11.68c-0.02-35.91,0.01-71.82,0.08-107.73c0.01-6.83,4.24-11.33,10.34-11.36
			c6.76-0.04,10.62,3.98,10.65,11.42c0.07,18.04,0.02,36.08,0.02,54.13C464.17,307,464.21,307,464.25,307z"/>
		<path class="st0" d="M99.84,313.67c0-8.58-0.16-17.17,0.05-25.74c0.17-7.13,3.37-10.23,10.27-10.64
			c5.54-0.33,11.12,3.98,11.24,9.92c0.35,17.85,0.42,35.72,0.04,53.57c-0.14,6.56-4.39,9.29-11.58,9.1
			c-7.02-0.19-9.74-2.63-9.97-9.94C99.62,331.19,99.82,322.43,99.84,313.67z"/>
		<path class="st0" d="M513.17,314c0,8.59,0.19,17.18-0.06,25.77c-0.23,8-2.7,10.31-10.03,10.34c-7.24,0.03-10.59-2.88-10.69-10.46
			c-0.21-17-0.27-34.01,0.1-51.01c0.2-9.25,6.94-13.37,15.03-10.14c4.3,1.72,5.49,5.14,5.53,9.2c0.09,8.76,0.03,17.53,0.03,26.29
			C513.13,314,513.15,314,513.17,314z"/>
	</g>
	<text transform="matrix(1 0 0 1 25 584.0508)" class="st0 st1 st2">Ring Ring Crm</text>
</g>
</svg>
